<svg width="720" height="1024" viewBox="0 0 720 1024" fill="none" xmlns="http://www.w3.org/2000/svg">
<g clip-path="url(#a)">
<path fill="#3C3CEF" d="M0 0h720v1024H0z"/>
<path fill="#6363F2" d="m86.532.468 386.833 386.833L359.898 500.768 86.532.468Z"/>
<path fill="#8A8AF5" d="m141.79.468 308.687 308.687L341.22 418.412 141.79.468Z"/>
<path fill="#B1B1F9" d="m203.266.468 221.747 221.747-112.63 112.63L203.266.468Z"/>
<path fill="#D8D8FC" d="m257.911.468 144.467 144.467-72.234 72.234L257.911.468Z"/>
<path fill="#6363F2" d="m97.661 1024.4 371.094-371.094-113.467 113.467L97.661 1024.4Z"/>
<path fill="#8A8AF5" d="m150.67 1024.4 296.128-296.128-90.464 90.464L150.67 1024.4Z"/>
<path fill="#B1B1F9" d="m209.645 1024.4 212.725-212.725-67.363 67.363L209.645 1024.4Z"/>
<path fill="#D8D8FC" d="m262.067 1024.4 138.589-138.589-43.795 43.795L262.067 1024.4Z"/>
<g clip-path="url(#b)" stroke="#3C3CEF" stroke-miterlimit="10">
<path fill="#D8D8FC" d="m591.229 507.505.289-1.13c1.768-7.039 1.957-14.376.567-21.492l-16.264-83.297c-2.024-10.33-13.708-15.551-22.779-10.153l-86.68 51.53c-5.536 3.292-9.194 9-9.849 15.396l-2.791 27 53.24 38.562 71.027-5.298c6.359-.477 11.695-4.955 13.24-11.118Z"/>
<path fill="#6363F2" d="m553.353 400.821-80.743 46.653c-6.303 3.636-10.383 10.164-10.884 17.413l-2.312 33.352 96.496 27.522 18.421-5.698c9.083-3.89 14.241-13.544 12.418-23.232l-16.576-88.306c-1.434-7.659-10.05-11.605-16.809-7.692l-.011-.012Z"/>
<path fill="#D8D8FC" d="M395.458 446.654c6.159-.975 13.896 15.551 17.309 36.899 3.413 21.348 1.178 39.459-4.98 40.435l-13.33 2.117c6.159-.976 8.382-19.076 4.981-40.435-3.402-21.359-11.151-37.874-17.31-36.899l13.33-2.117Z"/>
<path fill="#D8D8FC" d="M394.453 526.103c6.155-.975 8.385-19.076 3.982-40.429-4.404-21.354-12.153-37.873-18.325-36.898-6.155.975-8.385 19.076-3.981 40.429 4.403 21.353 12.152 37.873 18.324 36.898Z"/>
<path fill="#D8D8FC" d="M382.707 452.385c.567-.089 1.156.033 1.767.343 4.636 2.405 10.028 16.172 12.763 33.286 2.734 17.113 1.878 31.866-1.779 35.59-.478.488-1.001.787-1.568.876-4.924.776-11.428-14.276-14.518-33.629-3.091-19.353-1.59-35.69 3.335-36.466Z"/>
<path fill="#D8D8FC" d="M384.463 452.729c4.636 2.405 10.028 16.171 12.762 33.285 2.735 17.114 1.879 31.866-1.778 35.591-4.625-2.406-10.028-16.161-12.752-33.286-2.723-17.113-1.878-31.877 1.768-35.59Z"/>
<path fill="#D8D8FC" d="M362.84 427.102c-4.802 4.789-22.223-4.832-38.92-21.492-16.698-16.648-26.348-34.028-21.556-38.805l10.383-10.352c-4.803 4.788 4.847 22.157 21.556 38.805 16.709 16.648 34.129 26.269 38.921 21.492l-10.384 10.352Z"/>
<path fill="#D8D8FC" d="M373.238 416.743c4.798-4.783-4.853-22.159-21.554-38.811-16.702-16.652-34.13-26.274-38.928-21.491-4.797 4.783 4.85 22.16 21.555 38.812 16.702 16.652 34.13 26.274 38.927 21.49Z"/>
<path fill="#D8D8FC" d="M370.4 413.923c-.445.444-1.045.71-1.779.82-5.625.832-19.21-7.858-32.595-21.203-13.385-13.346-22.101-26.89-21.256-32.499.111-.731.378-1.33.823-1.773 3.846-3.835 19.232 5.298 34.363 20.383 15.141 15.097 24.291 30.437 20.455 34.272h-.011Z"/>
<path fill="#D8D8FC" d="M368.621 414.743c-5.625.832-19.21-7.858-32.595-21.203-13.385-13.346-22.101-26.89-21.256-32.499 5.626-.831 19.199 7.859 32.584 21.204 13.385 13.345 22.101 26.89 21.267 32.498Z"/>
<path fill="#FBFBFF" d="M275.761 409.168h184.309c3.235 0 5.87 2.616 5.87 5.852v250.167c0 6.772-5.514 12.259-12.296 12.259H269.902V415.02c0-3.225 2.623-5.852 5.87-5.852h-.011Z"/>
<path fill="#D8D8FC" d="M338.016 425.583h-49.96v5.664h49.96v-5.664ZM338.016 437.465h-49.96v5.664h49.96v-5.664ZM338.016 449.359h-49.96v5.664h49.96v-5.664ZM448.431 468.877H288.056v5.664h160.375v-5.664ZM448.431 480.771H288.056v5.664h160.375v-5.664ZM448.431 492.653H288.056v5.664h160.375v-5.664ZM448.431 504.535H288.056v151.408h160.375V504.535Z"/>
<path fill="#6363F2" d="M453.634 677.446H248.513L155.786 517.082c-1.257-2.183.322-4.899 2.834-4.899h200.007c4.447 0 8.505 2.561 10.406 6.573l70.938 150.056c2.49 5.276 7.815 8.634 13.663 8.634Z"/>
<path fill="#D8D8FC" d="M448.431 437.465h-49.96v5.664h49.96v-5.664ZM448.431 449.359h-49.96v5.664h49.96v-5.664Z"/>
<path fill="#FBFBFF" d="M286.111 677.446H110.005c-6.459 0-11.017-6.329-8.938-12.425l50.005-147.318c1.123-3.303 4.235-5.531 7.726-5.531h200.14c-10.127 0-12.139 6.429-15.386 15.994l-48.503 142.884c-1.301 3.824-4.892 6.396-8.938 6.396Z"/>
<path fill="#3C3CEF" d="M123.877 640.032h17.513v1.387h-6.567v4.338h6.567v4.335h-6.567v4.338h6.567v2.949h-17.513v-1.389h6.568v-4.336h-6.568v-4.338h6.568v-4.336h-6.568v-2.948Z"/>
<path fill="#D8D8FC" d="m320.873 533.076-160.374-.001-1.112 5.665 160.375-.001 1.111-5.663ZM315.426 544.626H155.052l-1.112 5.664h160.375l1.111-5.664ZM311.669 556.187H151.306l-1.112 5.663h160.363l1.112-5.663ZM307.722 568.445H147.359l-1.112 5.664h160.364l1.111-5.664ZM303.564 580.715H143.19l-1.112 5.653h160.375l1.111-5.653ZM298.996 592.975H138.621l-1.112 5.664h160.375l1.112-5.664ZM288.056 628.21h-57.397l-1.112 5.664h57.398l1.111-5.664ZM283.913 640.47h-57.397l-1.112 5.664h57.398l1.111-5.664ZM278.742 652.739h-57.397l-1.112 5.653h57.397l1.112-5.653ZM448.431 425.583h-49.96v5.664h49.96v-5.664Z"/>
<path fill="#D8D8FC" d="M152.428 381.646c3.346-5.996 23.046-1.452 43.99 10.164 20.945 11.617 35.219 25.893 31.873 31.889l-7.249 12.991c3.347-5.997-10.928-20.284-31.872-31.889-20.945-11.616-40.644-16.161-43.99-10.164l7.248-12.991Z"/>
<path fill="#D8D8FC" d="M221.044 436.707c3.349-6.002-10.919-20.285-31.867-31.9-20.948-15.615-40.644-20.165-43.993-14.163-3.348 6.003 10.92 20.285 31.868 31.9 20.948 11.616 40.644 16.166 43.992 10.163Z"/>
<path fill="#D8D8FC" d="M148.726 396.61c.312-.554.823-.987 1.501-1.297 5.258-2.372 20.945 2.328 37.742 11.638 16.798 11.311 29.083 22.107 29.828 27.815.1.743 0 1.408-.312 1.962-2.679 4.81-20.244.177-39.232-10.353-18.988-10.53-32.217-22.966-29.527-27.765Z"/>
<path fill="#D8D8FC" d="M150.238 395.313c5.259-2.372 20.945 2.328 37.743 11.638 16.798 11.311 29.082 22.107 29.827 27.815-5.259 2.372-20.934-2.339-37.732-11.649-16.797-11.311-29.082-22.118-29.838-27.815v.011Z"/>
<path fill="#FBFBFF" d="M294.459 453.914c0 10.242-28.971 18.533-64.712 18.533-35.741 0-64.712-8.302-64.712-18.533v-22.168c0 10.242 28.971 18.533 64.712 18.533 35.741 0 64.712-8.302 64.712-18.533v22.168Z"/>
<path fill="#FBFBFF" d="M229.747 450.278c35.74 0 64.712-8.297 64.712-18.532 0-10.235-28.972-18.533-64.712-18.533-35.74 0-64.712 8.298-64.712 18.533 0 10.235 28.972 18.532 64.712 18.532Z"/>
<path fill="#FBFBFF" d="M288.411 431.746c0 .942-.355 1.873-1.022 2.771-5.125 6.894-29.994 12.092-58.642 12.092-28.649 0-52.506-5.198-57.631-12.092-.667-.898-1.023-1.829-1.023-2.771 0-8.203 26.259-14.853 58.654-14.853 32.395 0 58.664 6.65 58.664 14.853Z"/>
<path fill="#FBFBFF" d="M287.389 434.517c-5.125 6.894-29.993 12.092-58.642 12.092-28.649 0-52.506-5.198-57.631-12.092 5.125-6.884 28.982-12.082 57.631-12.082 28.649 0 52.517 5.198 57.642 12.082Z"/>
<path fill="#D8D8FC" d="m454.823 477.268-99.309 55.764c-7.092 3.99-6.703 14.31.69 17.735l78.23 36.322c7.504 3.48 16.187 3.392 23.613-.233l124.644-60.918c-6.492 0-12.884-1.673-18.543-4.855l-77.63-43.781c-9.839-5.542-21.868-5.554-31.706-.046l.011.012Z"/>
<path fill="#FBFBFF" d="M582.691 525.927s16.754-4.655 15.931-25.571l-17.309-97.007-.889-1.918c-2.002-4.333-5.748-7.614-10.328-9.033 2.823 2.15 4.947 5.298 5.703 9.178l16.264 83.296c1.39 7.116 1.201 14.454-.567 21.492-1.679 6.695-7.793 11.328-14.719 11.162-4.046-.1-7.929-1.231-11.506-3.281l-75.262-44.148c-10.595-6.218-23.702-6.384-34.452-.443l-98.642 54.489c-4.347 2.405-6.959 7.06-6.748 12.015l.245 5.464c.022-3.347 1.701-6.706 5.091-8.601l99.309-55.764c9.85-5.531 21.878-5.52 31.706.034l77.63 43.781c5.659 3.193 12.04 4.866 18.543 4.855Z"/>
<path fill="#D8D8FC" d="m379.85 519.366 43.945 21.735c5.437 2.694 11.829 2.649 17.232-.11l26.103-13.323c5.247-2.672 5.536-10.032.533-13.124l-37.787-23.276-49.026 28.087v.011Z"/>
<path fill="#FBFBFF" d="M617.754 362.471c6.593 6.572-6.659 30.436-29.604 53.303-22.935 22.866-46.881 36.089-53.462 29.517l-14.274-14.232c6.592 6.572 30.527-6.64 53.461-29.517 22.935-22.866 36.198-46.741 29.605-53.303l14.274 14.232Z"/>
<path fill="#FBFBFF" d="M573.887 401.54c22.941-22.872 36.195-46.74 29.605-53.311-6.591-6.571-30.53 6.644-53.47 29.516-22.941 22.873-36.195 46.741-29.605 53.312 6.591 6.57 30.53-6.644 53.47-29.517Z"/>
<path fill="#FBFBFF" d="M599.6 352.107c.611.61.978 1.43 1.123 2.427 1.145 7.704-10.828 26.314-29.216 44.647-18.387 18.333-37.042 30.259-44.768 29.118-1.001-.144-1.834-.521-2.435-1.12-5.28-5.265 7.293-26.335 28.082-47.063 20.789-20.727 41.933-33.274 47.214-28.009Z"/>
<path fill="#FBFBFF" d="M600.734 354.546c1.145 7.703-10.828 26.313-29.215 44.646-18.388 18.333-37.042 30.259-44.769 29.118-1.145-7.693 10.828-26.303 29.216-44.636 18.388-18.333 37.053-30.27 44.768-29.128Z"/>
<path fill="#D8D8FC" d="M110.872 554.713c-5.136-5.121 5.192-23.72 23.068-41.543 17.876-17.824 36.531-28.121 41.667-23l11.117 11.084c-5.136-5.121-23.79 5.177-41.667 23-17.876 17.823-28.204 36.422-23.068 41.543l-11.117-11.084Z"/>
<path fill="#D8D8FC" d="M163.657 542.792c17.879-17.825 28.208-36.426 23.072-41.547-5.136-5.12-23.792 5.179-41.671 23.004-17.878 17.825-28.207 36.425-23.072 41.547 5.136 5.121 23.793-5.178 41.671-23.004Z"/>
<path fill="#D8D8FC" d="M125.025 562.782c-.479-.477-.768-1.12-.879-1.896-.9-6.007 8.438-20.505 22.768-34.793 14.33-14.287 28.871-23.586 34.896-22.689.79.122 1.435.411 1.901.876 4.114 4.101-5.68 20.528-21.889 36.677-16.209 16.161-32.684 25.926-36.797 21.825Z"/>
<path fill="#D8D8FC" d="M124.146 560.886c-.9-6.007 8.438-20.505 22.768-34.793 14.33-14.287 28.871-23.586 34.896-22.689.89 5.997-8.437 20.495-22.767 34.782-14.33 14.287-28.882 23.587-34.897 22.7Z"/>
<path fill="#D8D8FC" d="M381.474 614.757c-4.068-5.529 8.262-21.537 27.549-35.738 19.287-14.201 38.223-21.239 42.291-15.71l8.815 11.979c-4.069-5.53-23.015 1.504-42.292 15.71-19.287 14.201-31.617 30.199-27.549 35.729l-8.814-11.97Z"/>
<path fill="#D8D8FC" d="M460.153 575.305c-4.074-5.532-23.014 1.495-42.304 15.694-19.289 14.2-31.624 30.196-27.55 35.728 4.074 5.532 23.014-1.495 42.303-15.694 19.29-14.2 31.625-30.196 27.551-35.728Z"/>
<path fill="#D8D8FC" d="M393.566 624.335c-.375-.513-.556-1.157-.557-1.902.027-5.761 10.829-18.058 26.292-29.45 15.463-11.392 30.401-18.067 35.909-16.374.718.218 1.282.585 1.657 1.098 3.266 4.431-8.257 18.462-25.741 31.337-17.484 12.875-34.309 19.727-37.56 15.291Z"/>
<path fill="#D8D8FC" d="M393.013 622.423c.027-5.762 10.829-18.058 26.291-29.45 15.463-11.392 30.402-18.067 35.909-16.373-.027 5.761-10.834 18.043-26.297 29.435-15.463 11.392-30.411 18.062-35.913 16.383l.01.005Z"/>
</g>
</g>
<defs>
<clipPath id="a"><path fill="#fff" d="M0 0h720v1024H0z"/></clipPath>
<clipPath id="b"><path fill="#fff" d="M100 346h520v332H100z"/></clipPath>
</defs>
</svg>
